<svg width="1221" height="435" xmlns="http://www.w3.org/2000/svg" xmlns:xlink="http://www.w3.org/1999/xlink" xml:space="preserve" overflow="hidden"><defs><clipPath id="clip0"><rect x="1730" y="1402" width="1221" height="435"/></clipPath><clipPath id="clip1"><rect x="1730" y="1446" width="448" height="391"/></clipPath><clipPath id="clip2"><rect x="1730" y="1446" width="448" height="391"/></clipPath><clipPath id="clip3"><rect x="1730" y="1446" width="448" height="391"/></clipPath></defs><g clip-path="url(#clip0)" transform="translate(-1730 -1402)"><g clip-path="url(#clip1)"><g clip-path="url(#clip2)"><g clip-path="url(#clip3)"><path d="M338.176 374.169C336.363 371.968 335.846 368.084 335.328 353.842 334.68 336.234 334.68 336.234 327.689 332.609 318.755 327.948 312.67 322.122 308.398 313.965 305.42 308.398 304.902 305.808 304.902 295.969 304.773 285.741 304.514 284.316 301.924 282.245 297.652 278.749 277.454 266.708 275.901 266.708 275.124 266.708 271.887 268.392 268.651 270.463 257.257 277.713 241.85 278.749 231.234 273.053 228.644 271.758 225.149 270.593 223.465 270.593 221.653 270.593 214.014 274.477 206.505 279.267 194.723 286.647 192.911 288.33 193.558 290.66 194.076 292.085 194.723 296.487 195.111 300.63 196.536 315.519 187.602 330.667 173.102 338.176 158.083 345.815 140.864 343.096 128.305 331.055 118.206 321.345 115.358 311.505 116.782 291.437 117.17 287.035 116.782 286.776 103.058 277.972 88.946 269.039 88.946 269.039 81.6957 272.794 75.4811 275.901 72.8917 276.419 64.0877 276.419 55.2837 276.419 52.6943 275.771 46.8682 272.794 31.4612 264.637 23.8225 251.69 24.8583 234.859 26.0235 217.639 35.0864 205.081 50.8818 199.384 54.5069 198.089 54.5069 198.089 54.1185 181.647 53.7301 165.074 53.7301 165.074 48.2924 162.485 39.2295 158.083 30.4255 148.891 27.1887 140.216 21.751 125.974 25.3761 108.108 35.7338 97.75 46.3503 87.0039 64.994 83.3788 78.3294 89.2049 81.6957 90.7586 85.7092 91.9238 87.2629 91.9238 88.687 91.9238 96.3258 87.7808 104.094 82.602 118.077 73.4096 118.077 73.4096 117.041 68.1013 113.157 48.9397 122.09 30.6844 139.18 22.5278 151.998 16.4427 170.771 19.291 182.294 29.1308 192.004 37.5463 197.571 54.8953 194.335 66.6771 193.299 70.4318 193.428 72.1149 194.594 73.6685 195.759 75.0927 214.791 87.9102 222.041 92.3122 222.818 92.7006 226.055 91.9238 229.162 90.3702 245.346 83.1198 262.436 85.8387 275.642 97.8794 283.022 104.353 286.647 113.675 286.647 125.586 286.647 141.77 279.397 153.681 264.508 161.708 258.293 165.074 258.293 165.074 257.905 181.517 257.516 197.96 257.516 197.96 264.637 201.326 279.914 208.576 288.589 224.242 286.906 241.332 286 249.23 286 249.23 300.241 258.034 308.009 262.824 315.001 266.708 315.778 266.708 316.555 266.708 319.791 265.025 323.157 262.824 342.19 250.784 366.142 256.61 378.83 276.548 383.102 283.281 383.102 283.281 395.143 278.62 410.032 272.923 417.8 272.017 421.943 275.383 427.51 279.914 425.05 287.812 416.894 291.955 415.081 292.861 407.831 295.451 400.71 297.781 393.589 300.112 386.986 302.701 385.951 303.478 385.044 304.255 382.973 307.751 381.29 311.376 377.276 320.568 371.191 327.042 362.387 331.444 358.244 333.645 354.619 336.363 354.101 337.917 353.712 339.341 353.453 347.239 353.583 355.525 353.971 370.544 353.971 370.673 350.476 373.651 346.074 377.405 341.283 377.664 338.176 374.169ZM174.996 302.806C174.996 292.019 166.25 283.273 155.463 283.273 144.675 283.273 135.929 292.019 135.929 302.806 135.929 313.594 144.675 322.339 155.463 322.339 166.25 322.339 174.996 313.594 174.996 302.806ZM363.582 296.533C363.582 285.602 354.72 276.741 343.79 276.741 332.859 276.741 323.998 285.602 323.998 296.533 323.998 307.464 332.859 316.325 343.79 316.325 354.72 316.325 363.582 307.464 363.582 296.533ZM136.72 267.744C142.288 263.731 143.323 263.472 153.811 263.472 163.909 263.472 165.981 263.86 173.49 267.615 180.999 271.369 182.164 271.628 184.495 269.945 185.919 268.909 190.321 265.932 194.205 263.342 209.353 253.373 207.8 255.962 207.8 239.39 207.8 225.408 208.059 224.242 211.684 217.639 215.568 210.648 222.3 204.563 229.809 201.456 236.542 198.607 237.06 197.183 236.671 180.611 236.283 165.333 236.283 165.333 229.162 161.449 221.006 157.177 213.885 150.056 210.26 142.806 207.282 136.85 206.634 113.934 209.483 111.085 211.813 108.755 211.425 108.108 205.858 105.518 203.009 104.223 200.679 102.67 200.679 102.022 200.679 101.505 199.902 100.987 198.996 100.987 198.089 100.987 196.018 99.8215 194.464 98.3973 192.911 96.8437 191.616 96.0668 191.616 96.4553 191.616 96.9731 190.062 96.0668 187.991 94.7721 182.941 91.147 181.258 91.0175 175.432 94.1248 163.132 100.469 146.56 100.469 135.555 93.9953 129.729 90.4996 125.586 89.7228 125.586 91.9238 125.586 92.5712 121.055 96.0668 115.617 99.5625 99.3036 109.92 100.08 109.143 102.281 113.286 105.518 119.242 104.871 134.002 100.987 141.77 95.549 153.034 84.544 163.132 77.8116 163.132 75.3516 163.132 75.2222 164.168 74.8337 179.446 74.4453 197.442 75.0927 199.772 81.1778 201.067 86.2271 202.103 96.4553 211.295 100.728 218.546 103.706 223.724 104.223 226.055 104.223 234.341 104.223 241.462 103.576 245.087 102.022 247.547 99.1741 251.819 100.21 253.114 111.992 260.364 117.041 263.342 122.738 267.226 124.68 268.909 126.751 270.593 128.952 271.887 129.47 271.887 130.117 271.887 133.354 269.945 136.72 267.744ZM83.5299 237.523C83.5299 226.658 74.7221 217.852 63.8574 217.852 52.9925 217.852 44.1849 226.658 44.1849 237.523 44.1849 248.388 52.9925 257.196 63.8574 257.196 74.7221 257.196 83.5299 248.388 83.5299 237.523ZM267.246 237.184C267.246 226.214 258.354 217.322 247.384 217.322 236.414 217.322 227.522 226.214 227.522 237.184 227.522 248.153 236.414 257.046 247.384 257.046 258.354 257.046 267.246 248.153 267.246 237.184ZM83.5752 126.032C83.5752 115.178 74.7761 106.379 63.9219 106.379 53.0676 106.379 44.2686 115.178 44.2686 126.032 44.2686 136.886 53.0676 145.685 63.9219 145.685 74.7761 145.685 83.5752 136.886 83.5752 126.032ZM267.024 126.187C267.024 115.256 258.163 106.395 247.234 106.395 236.302 106.395 227.441 115.256 227.441 126.187 227.441 137.118 236.302 145.979 247.234 145.979 258.163 145.979 267.024 137.118 267.024 126.187ZM174.892 59.136C174.892 48.2727 166.086 39.4663 155.222 39.4663 144.359 39.4663 135.553 48.2727 135.553 59.136 135.553 69.9995 144.359 78.8059 155.222 78.8059 166.086 78.8059 174.892 69.9995 174.892 59.136Z" fill="#017FCB" transform="matrix(1.00007 0 0 1 1730 1446)"/><path d="M157.047 253.114C153.552 250.654 152.257 245.475 154.328 241.591 155.235 239.779 162.873 233.953 171.289 228.515 184.495 219.711 186.955 218.546 190.58 219.322 196.277 220.488 199.384 223.595 199.384 228.515 199.384 233.564 195.111 237.707 179.964 247.806 168.182 255.574 162.485 256.869 157.047 253.114Z" fill="#017FCB" transform="matrix(1.00007 0 0 1 1730 1446)"/><path d="M102.281 205.858C99.3036 203.268 99.3036 202.75 99.5625 182.164 99.8215 159.507 100.728 156.141 106.813 154.587 108.884 154.069 111.474 154.717 114.193 156.27 118.465 158.73 118.465 158.73 118.854 180.352 119.113 200.938 119.113 201.973 116.264 205.21 112.768 209.224 106.554 209.483 102.281 205.858Z" fill="#017FCB" transform="matrix(1.00007 0 0 1 1730 1446)"/><path d="M170.253 133.354C157.047 125.457 154.069 122.349 154.069 116.264 154.069 112.38 159.248 107.46 163.521 107.46 166.887 107.46 192.781 122.479 195.759 126.104 200.938 132.448 196.277 141.122 187.602 141.122 184.495 141.122 179.316 138.663 170.253 133.354Z" fill="#017FCB" transform="matrix(1.00007 0 0 1 1730 1446)"/></g></g></g><text fill="#FEB43D" font-family="Monoplex KR Medium,Monoplex KR Medium_MSFontService,sans-serif" font-weight="700" font-size="202" transform="matrix(1 0 0 1 2083.27 1659)">Polymer</text></g></svg>
